<?xml version="1.0" encoding="utf-8" standalone="no"?>
<!DOCTYPE svg PUBLIC "-//W3C//DTD SVG 1.1//EN" "http://www.w3.org/Graphics/SVG/1.1/DTD/svg11.dtd">
<svg width="3000px" height="3000px" version="1.1" xmlns="http://www.w3.org/2000/svg" xmlns:xlink="http://www.w3.org/1999/xlink">
<g id="ideograms">
<path d="M1500.000,250.000 A1250.000,1250.000 40.000 0,1 2045.611,375.363 L2089.259,285.392 A1350.000,1350.000 0.000 0,0 1500.000,150.000 Z" style="stroke-width:2.0;stroke:rgb(115,115,115);stroke-linecap:round;fill:rgb(153,102,0);"/>
<text x="1819.1" y="111.2" font-size="39.0px" font-family="CMUSerif-Roman" style="text-anchor:middle;fill:rgb(0,0,0);" transform="rotate(372.9,1819.1,111.2)">1</text>
<path d="M1500.000,250.000 A1250.000,1250.000 40.000 0,1 2045.611,375.363 L2089.259,285.392 A1350.000,1350.000 0.000 0,0 1500.000,150.000 Z" style="stroke-width:2.0;stroke:rgb(115,115,115);stroke-linecap:round;fill:none;"/>
<path d="M2076.938,391.107 A1250.000,1250.000 40.000 0,1 2494.856,743.190 L2574.445,682.645 A1350.000,1350.000 0.000 0,0 2123.093,302.396 Z" style="stroke-width:2.0;stroke:rgb(115,115,115);stroke-linecap:round;fill:rgb(102,102,0);"/>
<text x="2418.1" y="410.2" font-size="39.0px" font-family="CMUSerif-Roman" style="text-anchor:middle;fill:rgb(0,0,0);" transform="rotate(400.1,2418.1,410.2)">2</text>
<path d="M2076.938,391.107 A1250.000,1250.000 40.000 0,1 2494.856,743.190 L2574.445,682.645 A1350.000,1350.000 0.000 0,0 2123.093,302.396 Z" style="stroke-width:2.0;stroke:rgb(115,115,115);stroke-linecap:round;fill:none;"/>
<path d="M2515.691,771.390 A1250.000,1250.000 40.000 0,1 2706.881,1174.517 L2803.431,1148.479 A1350.000,1350.000 0.000 0,0 2596.946,713.101 Z" style="stroke-width:2.0;stroke:rgb(115,115,115);stroke-linecap:round;fill:rgb(153,153,30);"/>
<text x="2787.5" y="889.4" font-size="39.0px" font-family="CMUSerif-Roman" style="text-anchor:middle;fill:rgb(0,0,0);" transform="rotate(424.6,2787.5,889.4)">3</text>
<path d="M2515.691,771.390 A1250.000,1250.000 40.000 0,1 2706.881,1174.517 L2803.431,1148.479 A1350.000,1350.000 0.000 0,0 2596.946,713.101 Z" style="stroke-width:2.0;stroke:rgb(115,115,115);stroke-linecap:round;fill:none;"/>
<path d="M2715.534,1208.494 A1250.000,1250.000 40.000 0,1 2742.302,1638.512 L2841.686,1649.593 A1350.000,1350.000 0.000 0,0 2812.777,1185.173 Z" style="stroke-width:2.0;stroke:rgb(115,115,115);stroke-linecap:round;fill:rgb(204,0,0);"/>
<text x="2922.2" y="1411.5" font-size="39.0px" font-family="CMUSerif-Roman" style="text-anchor:middle;fill:rgb(0,0,0);" transform="rotate(446.4,2922.2,1411.5)">4</text>
<path d="M2715.534,1208.494 A1250.000,1250.000 40.000 0,1 2742.302,1638.512 L2841.686,1649.593 A1350.000,1350.000 0.000 0,0 2812.777,1185.173 Z" style="stroke-width:2.0;stroke:rgb(115,115,115);stroke-linecap:round;fill:none;"/>
<path d="M2737.929,1673.299 A1250.000,1250.000 40.000 0,1 2616.186,2062.697 L2705.481,2107.713 A1350.000,1350.000 0.000 0,0 2836.963,1687.163 Z" style="stroke-width:2.0;stroke:rgb(115,115,115);stroke-linecap:round;fill:rgb(255,0,0);"/>
<text x="2887.8" y="1933.9" font-size="39.0px" font-family="CMUSerif-Roman" style="text-anchor:middle;fill:rgb(0,0,0);" transform="rotate(-72.6,2887.8,1933.9)">5</text>
<path d="M2737.929,1673.299 A1250.000,1250.000 40.000 0,1 2616.186,2062.697 L2705.481,2107.713 A1350.000,1350.000 0.000 0,0 2836.963,1687.163 Z" style="stroke-width:2.0;stroke:rgb(115,115,115);stroke-linecap:round;fill:none;"/>
<path d="M2599.966,2093.781 A1250.000,1250.000 40.000 0,1 2366.311,2401.113 L2435.616,2473.203 A1350.000,1350.000 0.000 0,0 2687.963,2141.283 Z" style="stroke-width:2.0;stroke:rgb(115,115,115);stroke-linecap:round;fill:rgb(255,0,204);"/>
<text x="2657.5" y="2380.0" font-size="39.0px" font-family="CMUSerif-Roman" style="text-anchor:middle;fill:rgb(0,0,0);" transform="rotate(-52.8,2657.5,2380.0)">6</text>
<path d="M2599.966,2093.781 A1250.000,1250.000 40.000 0,1 2366.311,2401.113 L2435.616,2473.203 A1350.000,1350.000 0.000 0,0 2687.963,2141.283 Z" style="stroke-width:2.0;stroke:rgb(115,115,115);stroke-linecap:round;fill:none;"/>
<path d="M2340.697,2425.056 A1250.000,1250.000 40.000 0,1 2042.884,2625.956 L2086.314,2716.033 A1350.000,1350.000 0.000 0,0 2407.953,2499.060 Z" style="stroke-width:2.0;stroke:rgb(115,115,115);stroke-linecap:round;fill:rgb(255,204,204);"/>
<text x="2313.1" y="2705.4" font-size="39.0px" font-family="CMUSerif-Roman" style="text-anchor:middle;fill:rgb(0,0,0);" transform="rotate(-34.0,2313.1,2705.4)">7</text>
<path d="M2340.697,2425.056 A1250.000,1250.000 40.000 0,1 2042.884,2625.956 L2086.314,2716.033 A1350.000,1350.000 0.000 0,0 2407.953,2499.060 Z" style="stroke-width:2.0;stroke:rgb(115,115,115);stroke-linecap:round;fill:none;"/>
<path d="M2011.091,2640.739 A1250.000,1250.000 40.000 0,1 1694.183,2734.825 L1709.717,2833.611 A1350.000,1350.000 0.000 0,0 2051.978,2731.998 Z" style="stroke-width:2.0;stroke:rgb(115,115,115);stroke-linecap:round;fill:rgb(255,153,0);"/>
<text x="1913.8" y="2893.9" font-size="39.0px" font-family="CMUSerif-Roman" style="text-anchor:middle;fill:rgb(0,0,0);" transform="rotate(-16.5,1913.8,2893.9)">8</text>
<path d="M2011.091,2640.739 A1250.000,1250.000 40.000 0,1 1694.183,2734.825 L1709.717,2833.611 A1350.000,1350.000 0.000 0,0 2051.978,2731.998 Z" style="stroke-width:2.0;stroke:rgb(115,115,115);stroke-linecap:round;fill:none;"/>
<path d="M1659.474,2739.785 A1250.000,1250.000 40.000 0,1 1340.462,2739.777 L1327.699,2838.959 A1350.000,1350.000 0.000 0,0 1672.232,2838.968 Z" style="stroke-width:2.0;stroke:rgb(115,115,115);stroke-linecap:round;fill:rgb(255,204,0);"/>
<text x="1500.0" y="2954.0" font-size="39.0px" font-family="CMUSerif-Roman" style="text-anchor:middle;fill:rgb(0,0,0);" transform="rotate(0.0,1500.0,2954.0)">9</text>
<path d="M1659.474,2739.785 A1250.000,1250.000 40.000 0,1 1340.462,2739.777 L1327.699,2838.959 A1350.000,1350.000 0.000 0,0 1672.232,2838.968 Z" style="stroke-width:2.0;stroke:rgb(115,115,115);stroke-linecap:round;fill:none;"/>
<path d="M1305.754,2734.815 A1250.000,1250.000 40.000 0,1 1011.334,2650.524 L972.240,2742.566 A1350.000,1350.000 0.000 0,0 1290.214,2833.600 Z" style="stroke-width:2.0;stroke:rgb(115,115,115);stroke-linecap:round;fill:rgb(255,255,0);"/>
<text x="1099.8" y="2897.8" font-size="39.0px" font-family="CMUSerif-Roman" style="text-anchor:middle;fill:rgb(0,0,0);" transform="rotate(16.0,1099.8,2897.8)">10</text>
<path d="M1305.754,2734.815 A1250.000,1250.000 40.000 0,1 1011.334,2650.524 L972.240,2742.566 A1350.000,1350.000 0.000 0,0 1290.214,2833.600 Z" style="stroke-width:2.0;stroke:rgb(115,115,115);stroke-linecap:round;fill:none;"/>
<path d="M979.258,2636.366 A1250.000,1250.000 40.000 0,1 719.509,2476.388 L657.070,2554.499 A1350.000,1350.000 0.000 0,0 937.599,2727.275 Z" style="stroke-width:2.0;stroke:rgb(115,115,115);stroke-linecap:round;fill:rgb(204,255,0);"/>
<text x="738.0" y="2737.2" font-size="39.0px" font-family="CMUSerif-Roman" style="text-anchor:middle;fill:rgb(0,0,0);" transform="rotate(31.6,738.0,2737.2)">11</text>
<path d="M979.258,2636.366 A1250.000,1250.000 40.000 0,1 719.509,2476.388 L657.070,2554.499 A1350.000,1350.000 0.000 0,0 937.599,2727.275 Z" style="stroke-width:2.0;stroke:rgb(115,115,115);stroke-linecap:round;fill:none;"/>
<path d="M692.432,2454.114 A1250.000,1250.000 40.000 0,1 486.901,2232.209 L405.853,2290.785 A1350.000,1350.000 0.000 0,0 627.827,2530.443 Z" style="stroke-width:2.0;stroke:rgb(115,115,115);stroke-linecap:round;fill:rgb(0,255,0);"/>
<text x="434.0" y="2487.3" font-size="39.0px" font-family="CMUSerif-Roman" style="text-anchor:middle;fill:rgb(0,0,0);" transform="rotate(47.2,434.0,2487.3)">12</text>
<path d="M692.432,2454.114 A1250.000,1250.000 40.000 0,1 486.901,2232.209 L405.853,2290.785 A1350.000,1350.000 0.000 0,0 627.827,2530.443 Z" style="stroke-width:2.0;stroke:rgb(115,115,115);stroke-linecap:round;fill:none;"/>
<path d="M466.763,2203.507 A1250.000,1250.000 40.000 0,1 343.420,1974.155 L250.894,2012.087 A1350.000,1350.000 0.000 0,0 384.104,2259.788 Z" style="stroke-width:2.0;stroke:rgb(115,115,115);stroke-linecap:round;fill:rgb(53,128,0);"/>
<text x="219.4" y="2188.7" font-size="39.0px" font-family="CMUSerif-Roman" style="text-anchor:middle;fill:rgb(0,0,0);" transform="rotate(61.7,219.4,2188.7)">13</text>
<path d="M466.763,2203.507 A1250.000,1250.000 40.000 0,1 343.420,1974.155 L250.894,2012.087 A1350.000,1350.000 0.000 0,0 384.104,2259.788 Z" style="stroke-width:2.0;stroke:rgb(115,115,115);stroke-linecap:round;fill:none;"/>
<path d="M330.577,1941.530 A1250.000,1250.000 40.000 0,1 267.282,1707.136 L168.664,1723.707 A1350.000,1350.000 0.000 0,0 237.023,1976.853 Z" style="stroke-width:2.0;stroke:rgb(115,115,115);stroke-linecap:round;fill:rgb(0,0,204);"/>
<text x="97.2" y="1878.8" font-size="39.0px" font-family="CMUSerif-Roman" style="text-anchor:middle;fill:rgb(0,0,0);" transform="rotate(74.9,97.2,1878.8)">14</text>
<path d="M330.577,1941.530 A1250.000,1250.000 40.000 0,1 267.282,1707.136 L168.664,1723.707 A1350.000,1350.000 0.000 0,0 237.023,1976.853 Z" style="stroke-width:2.0;stroke:rgb(115,115,115);stroke-linecap:round;fill:none;"/>
<path d="M261.957,1672.481 A1250.000,1250.000 40.000 0,1 251.403,1440.796 L151.515,1436.060 A1350.000,1350.000 0.000 0,0 162.914,1686.280 Z" style="stroke-width:2.0;stroke:rgb(115,115,115);stroke-linecap:round;fill:rgb(102,153,255);"/>
<text x="47.5" y="1566.2" font-size="39.0px" font-family="CMUSerif-Roman" style="text-anchor:middle;fill:rgb(0,0,0);" transform="rotate(87.4,47.5,1566.2)">15</text>
<path d="M261.957,1672.481 A1250.000,1250.000 40.000 0,1 251.403,1440.796 L151.515,1436.060 A1350.000,1350.000 0.000 0,0 162.914,1686.280 Z" style="stroke-width:2.0;stroke:rgb(115,115,115);stroke-linecap:round;fill:none;"/>
<path d="M253.554,1405.801 A1250.000,1250.000 40.000 0,1 285.582,1203.878 L188.428,1180.188 A1350.000,1350.000 0.000 0,0 153.839,1398.265 Z" style="stroke-width:2.0;stroke:rgb(115,115,115);stroke-linecap:round;fill:rgb(153,204,255);"/>
<text x="92.6" y="1276.8" font-size="39.0px" font-family="CMUSerif-Roman" style="text-anchor:middle;fill:rgb(0,0,0);" transform="rotate(-81.0,92.6,1276.8)">16</text>
<path d="M253.554,1405.801 A1250.000,1250.000 40.000 0,1 285.582,1203.878 L188.428,1180.188 A1350.000,1350.000 0.000 0,0 153.839,1398.265 Z" style="stroke-width:2.0;stroke:rgb(115,115,115);stroke-linecap:round;fill:none;"/>
<path d="M294.365,1169.934 A1250.000,1250.000 40.000 0,1 355.784,996.741 L264.247,956.480 A1350.000,1350.000 0.000 0,0 197.914,1143.529 Z" style="stroke-width:2.0;stroke:rgb(115,115,115);stroke-linecap:round;fill:rgb(0,255,255);"/>
<text x="157.0" y="1023.7" font-size="39.0px" font-family="CMUSerif-Roman" style="text-anchor:middle;fill:rgb(0,0,0);" transform="rotate(-70.5,157.0,1023.7)">17</text>
<path d="M294.365,1169.934 A1250.000,1250.000 40.000 0,1 355.784,996.741 L264.247,956.480 A1350.000,1350.000 0.000 0,0 197.914,1143.529 Z" style="stroke-width:2.0;stroke:rgb(115,115,115);stroke-linecap:round;fill:none;"/>
<path d="M370.349,964.848 A1250.000,1250.000 40.000 0,1 457.105,810.892 L373.673,755.764 A1350.000,1350.000 0.000 0,0 279.977,922.035 Z" style="stroke-width:2.0;stroke:rgb(115,115,115);stroke-linecap:round;fill:rgb(204,255,255);"/>
<text x="258.5" y="800.4" font-size="39.0px" font-family="CMUSerif-Roman" style="text-anchor:middle;fill:rgb(0,0,0);" transform="rotate(-60.6,258.5,800.4)">18</text>
<path d="M370.349,964.848 A1250.000,1250.000 40.000 0,1 457.105,810.892 L373.673,755.764 A1350.000,1350.000 0.000 0,0 279.977,922.035 Z" style="stroke-width:2.0;stroke:rgb(115,115,115);stroke-linecap:round;fill:none;"/>
<path d="M476.842,781.914 A1250.000,1250.000 40.000 0,1 559.509,676.607 L484.269,610.736 A1350.000,1350.000 0.000 0,0 394.989,724.467 Z" style="stroke-width:2.0;stroke:rgb(115,115,115);stroke-linecap:round;fill:rgb(153,0,204);"/>
<text x="379.1" y="620.1" font-size="39.0px" font-family="CMUSerif-Roman" style="text-anchor:middle;fill:rgb(0,0,0);" transform="rotate(-51.9,379.1,620.1)">19</text>
<path d="M476.842,781.914 A1250.000,1250.000 40.000 0,1 559.509,676.607 L484.269,610.736 A1350.000,1350.000 0.000 0,0 394.989,724.467 Z" style="stroke-width:2.0;stroke:rgb(115,115,115);stroke-linecap:round;fill:none;"/>
<path d="M582.972,650.554 A1250.000,1250.000 40.000 0,1 685.755,551.578 L620.615,475.704 A1350.000,1350.000 0.000 0,0 509.609,582.598 Z" style="stroke-width:2.0;stroke:rgb(115,115,115);stroke-linecap:round;fill:rgb(204,51,255);"/>
<text x="511.6" y="473.5" font-size="39.0px" font-family="CMUSerif-Roman" style="text-anchor:middle;fill:rgb(0,0,0);" transform="rotate(-43.9,511.6,473.5)">20</text>
<path d="M582.972,650.554 A1250.000,1250.000 40.000 0,1 685.755,551.578 L620.615,475.704 A1350.000,1350.000 0.000 0,0 509.609,582.598 Z" style="stroke-width:2.0;stroke:rgb(115,115,115);stroke-linecap:round;fill:none;"/>
<path d="M712.675,529.114 A1250.000,1250.000 40.000 0,1 800.242,464.221 L744.262,381.358 A1350.000,1350.000 0.000 0,0 649.689,451.443 Z" style="stroke-width:2.0;stroke:rgb(115,115,115);stroke-linecap:round;fill:rgb(204,153,255);"/>
<text x="651.6" y="355.1" font-size="39.0px" font-family="CMUSerif-Roman" style="text-anchor:middle;fill:rgb(0,0,0);" transform="rotate(-36.5,651.6,355.1)">21</text>
<path d="M712.675,529.114 A1250.000,1250.000 40.000 0,1 800.242,464.221 L744.262,381.358 A1350.000,1350.000 0.000 0,0 649.689,451.443 Z" style="stroke-width:2.0;stroke:rgb(115,115,115);stroke-linecap:round;fill:none;"/>
<path d="M829.567,445.002 A1250.000,1250.000 40.000 0,1 930.409,387.316 L884.842,298.301 A1350.000,1350.000 0.000 0,0 775.933,360.603 Z" style="stroke-width:2.0;stroke:rgb(115,115,115);stroke-linecap:round;fill:rgb(102,102,102);"/>
<text x="792.4" y="263.1" font-size="39.0px" font-family="CMUSerif-Roman" style="text-anchor:middle;fill:rgb(0,0,0);" transform="rotate(-29.8,792.4,263.1)">22</text>
<path d="M829.567,445.002 A1250.000,1250.000 40.000 0,1 930.409,387.316 L884.842,298.301 A1350.000,1350.000 0.000 0,0 775.933,360.603 Z" style="stroke-width:2.0;stroke:rgb(115,115,115);stroke-linecap:round;fill:none;"/>
<path d="M961.840,371.779 A1250.000,1250.000 40.000 0,1 1296.292,266.711 L1279.995,168.047 A1350.000,1350.000 0.000 0,0 918.787,281.521 Z" style="stroke-width:2.0;stroke:rgb(115,115,115);stroke-linecap:round;fill:rgb(153,153,153);"/>
<text x="1072.9" y="140.5" font-size="39.0px" font-family="CMUSerif-Roman" style="text-anchor:middle;fill:rgb(0,0,0);" transform="rotate(-17.4,1072.9,140.5)">x</text>
<path d="M961.840,371.779 A1250.000,1250.000 40.000 0,1 1296.292,266.711 L1279.995,168.047 A1350.000,1350.000 0.000 0,0 918.787,281.521 Z" style="stroke-width:2.0;stroke:rgb(115,115,115);stroke-linecap:round;fill:none;"/>
<path d="M1330.961,261.482 A1250.000,1250.000 40.000 0,1 1464.942,250.492 L1462.138,150.531 A1350.000,1350.000 0.000 0,0 1317.438,162.401 Z" style="stroke-width:2.0;stroke:rgb(115,115,115);stroke-linecap:round;fill:rgb(204,204,204);"/>
<text x="1383.5" y="79.8" font-size="39.0px" font-family="CMUSerif-Roman" style="text-anchor:middle;fill:rgb(0,0,0);" transform="rotate(-4.7,1383.5,79.8)">y</text>
<path d="M1330.961,261.482 A1250.000,1250.000 40.000 0,1 1464.942,250.492 L1462.138,150.531 A1350.000,1350.000 0.000 0,0 1317.438,162.401 Z" style="stroke-width:2.0;stroke:rgb(115,115,115);stroke-linecap:round;fill:none;"/>
</g>
</svg>
